# xmcd
#
# Track frame offsets: 
#        150
#        11055
#        26450
#        48736
#        61736
#        74036
#        94201
#        107914
#        123849
#        140184
#        155675
#        168985
#        193770
#        208865
#        221859
#        232729
#
# Disc length: 3326 seconds
#
# Revision: 0
# Processed by: cddbd v1.5.2PL0 Copyright (c) Steve Scherf et al.
# Submitted via: ExactAudioCopy v1.3
#
DISCID=f30cfc10
DTITLE=Good Time Charlie - Comin' Down With The Blues
DYEAR=1900
DGENRE=Blues
TTITLE0=Boogie Man
TTITLE1=Why Don't You Stop, Babe?
TTITLE2=Broke And Lonely
TTITLE3=I Ain't Gonna Be Your Monkey Man
TTITLE4=I'm A Fool To Care
TTITLE5=Out My Door
TTITLE6=Lil' Girl
TTITLE7=I'm Moving Out
TTITLE8=Comin' Down With The Blues
TTITLE9=Veguzdal
TTITLE10=No Buts And No Maybes
TTITLE11=Homesick
TTITLE12=I'm Hooked
TTITLE13=You Don't Love Me
TTITLE14=She's Talking Bout Loving
TTITLE15=Davy Crockett
EXTD=
EXTT0=
EXTT1=
EXTT2=
EXTT3=
EXTT4=
EXTT5=
EXTT6=
EXTT7=
EXTT8=
EXTT9=
EXTT10=
EXTT11=
EXTT12=
EXTT13=
EXTT14=
EXTT15=
PLAYORDER=
